<svg width="260" height="260" viewBox="0 0 260 260" fill="none" xmlns="http://www.w3.org/2000/svg">
<circle cx="130" cy="130" r="130" fill="#0C0C0D"/>
<path d="M76.757 124.52C81.857 129.807 88.1679 133.502 93.0299 135.933C98.4757 138.689 105.123 142.233 110.407 146.499C115.708 150.781 119.517 155.695 119.517 161.173C119.517 166.168 117.057 170.331 113.112 173.261C109.16 176.197 103.721 177.886 97.8272 177.886C93.4694 177.886 87.4072 177.098 80.8074 172.893L66.8678 157.076L65.7644 155.825L65.9976 157.477L69.0907 179.398L69.1514 179.828H69.5858H97.8272C112.022 179.828 122.937 170.925 122.937 157.407C122.937 148.131 119.893 141.747 114.717 136.708C109.571 131.699 102.334 128.036 94.0045 124.14C89.7246 122.134 83.8857 118.862 79.1254 114.734C74.3471 110.591 70.7582 105.675 70.7582 100.386C70.7582 96.3345 72.7788 92.9107 76.0688 90.484C79.3653 88.0524 83.9301 86.6312 88.9513 86.6312C94.7367 86.6312 100.405 88.4643 105.563 91.7567L118.291 106.761L119.355 108.016L119.169 106.381L116.748 85.1332L116.698 84.6898H116.251H88.6823C77.4624 84.6898 67.741 91.6953 67.741 103.479C67.741 112.316 71.6501 119.226 76.757 124.52ZM195.751 179.828H196.926L196.111 178.981L189.175 171.778L160.962 112.009C165.48 105.941 171.433 99.6068 178.826 93.266L192.233 85.6242L193.872 84.6898H191.985H173.695H172.873L173.252 85.4199L176.836 92.3326C161.108 106.039 147.664 124.423 142.861 142.677V92.9226L149.983 85.5369L150.8 84.6898H149.623H127.03H125.853L126.67 85.5369L133.792 92.9226V171.595L126.67 178.981L125.853 179.828H127.03H149.623H150.8L149.983 178.981L142.861 171.595V158.617C142.861 144.136 147.45 132.969 154.677 121.071L178.905 172.291L174.356 179.049L173.832 179.828H174.771H195.751Z" fill="white" stroke="white"/>
</svg>
