<svg width="260" height="261" viewBox="0 0 260 261" fill="none" xmlns="http://www.w3.org/2000/svg">
<circle cx="130" cy="130.894" r="130" fill="#0C0C0D"/>
<path d="M93.7927 125.487C85.1858 121.453 70.2582 112.308 70.2582 101.281C70.2582 92.8081 78.7306 87.0254 88.9513 87.0254C94.8685 87.0254 100.651 88.9081 105.896 92.2702L118.672 107.332L116.251 86.084H88.6823C77.6547 86.084 68.2409 92.9426 68.2409 104.374C68.2409 121.722 83.572 131.539 93.2547 136.381C104.148 141.894 120.017 150.636 120.017 162.067C120.017 172.422 109.796 179.281 97.8271 179.281C93.3892 179.281 87.203 178.474 80.4789 174.17L66.4927 158.301L69.5858 180.222H97.8271C111.813 180.222 122.437 171.481 122.437 158.301C122.437 140.012 110.469 133.287 93.7927 125.487ZM195.751 180.222L188.757 172.96L160.382 112.846C164.954 106.66 171.006 100.205 178.537 93.7495L191.985 86.084H173.695L177.461 93.3461C160.382 108.139 145.992 128.446 142.361 148.081V93.615L149.623 86.084H127.03L134.292 93.615V172.691L127.03 180.222H149.623L142.361 172.691V159.512C142.361 144.584 147.202 133.153 154.733 120.915L179.478 173.229L174.771 180.222H195.751Z" fill="white"/>
</svg>
