<?xml version="1.0" standalone="no"?>
<!DOCTYPE svg PUBLIC "-//W3C//DTD SVG 20010904//EN"
 "http://www.w3.org/TR/2001/REC-SVG-20010904/DTD/svg10.dtd">
<svg version="1.0" xmlns="http://www.w3.org/2000/svg"
 width="522.000000pt" height="522.000000pt" viewBox="0 0 522.000000 522.000000"
 preserveAspectRatio="xMidYMid meet">
<metadata>
Created by potrace 1.11, written by Peter Selinger 2001-2013
</metadata>
<g transform="translate(0.000000,522.000000) scale(0.100000,-0.100000)"
fill="#000000" stroke="none">
<path d="M2445 5189 c-337 -19 -660 -106 -980 -264 -273 -134 -479 -281 -689
-491 -355 -354 -594 -795 -701 -1289 -83 -386 -78 -757 15 -1150 110 -460 344
-880 680 -1216 240 -240 463 -396 768 -537 201 -93 470 -172 707 -208 169 -26
561 -26 730 0 237 36 506 115 707 208 736 340 1263 979 1448 1753 92 385 98
760 19 1135 -166 788 -673 1441 -1394 1796 -413 203 -846 290 -1310 263z
m-101 -1721 c15 -88 46 -391 41 -396 -3 -3 -11 2 -18 10 -6 9 -65 79 -130 156
-113 133 -122 141 -195 175 -149 69 -323 77 -445 19 -210 -98 -232 -294 -54
-479 84 -88 203 -166 407 -268 203 -101 299 -165 375 -246 100 -109 140 -228
133 -400 -3 -86 -8 -114 -30 -161 -54 -116 -144 -194 -275 -240 -66 -22 -77
-23 -413 -23 l-345 0 -27 185 c-28 196 -33 250 -20 249 4 0 68 -70 142 -156
125 -144 140 -158 205 -189 98 -47 199 -67 305 -61 169 11 300 81 368 196 24
40 27 57 27 131 0 107 -23 159 -110 246 -80 79 -179 146 -384 256 -194 105
-277 164 -364 259 -222 239 -221 576 2 707 101 59 117 61 473 62 l327 0 5 -32z
m656 24 c0 -4 -31 -39 -70 -77 l-70 -69 0 -511 1 -510 38 110 c97 282 284 563
544 817 l109 107 -37 66 c-20 37 -35 69 -32 71 2 2 87 3 188 2 l184 -3 -140
-80 c-119 -68 -156 -96 -249 -185 -110 -106 -236 -249 -236 -268 0 -6 126
-276 279 -601 l279 -591 72 -77 73 -78 -213 -3 c-117 -1 -215 0 -218 2 -2 3
17 35 43 72 l46 67 -18 41 c-10 23 -119 256 -243 518 l-225 476 -23 -36 c-40
-64 -104 -194 -138 -282 -55 -144 -74 -259 -81 -487 l-6 -203 72 -79 c39 -44
71 -82 71 -85 0 -3 -101 -6 -225 -6 -124 0 -225 3 -225 8 0 4 32 39 70 77 l70
69 0 791 0 791 -70 69 c-38 38 -70 73 -70 77 0 5 101 8 225 8 124 0 225 -3
225 -8z"/>
</g>
</svg>
