<?xml version="1.0" standalone="no"?>
<!DOCTYPE svg PUBLIC "-//W3C//DTD SVG 20010904//EN"
 "http://www.w3.org/TR/2001/REC-SVG-20010904/DTD/svg10.dtd">
<svg version="1.0" xmlns="http://www.w3.org/2000/svg"
 width="700.000000pt" height="700.000000pt" viewBox="0 0 700.000000 700.000000"
 preserveAspectRatio="xMidYMid meet">
<metadata>
Created by potrace 1.14, written by Peter Selinger 2001-2017
</metadata>
<g transform="translate(0.000000,700.000000) scale(0.100000,-0.100000)"
fill="#000000" stroke="none">
<path d="M3295 6993 c-371 -30 -635 -82 -934 -185 -919 -317 -1674 -1011
-2064 -1898 -348 -793 -390 -1690 -117 -2511 296 -891 926 -1615 1770 -2035
1056 -524 2321 -477 3334 126 261 155 450 303 682 535 296 295 490 562 670
925 527 1060 475 2335 -135 3350 -242 401 -588 776 -968 1048 -523 374 -1124
590 -1787 642 -119 9 -356 11 -451 3z m-102 -2594 c21 -182 36 -333 34 -336
-3 -2 -92 100 -198 226 -176 208 -200 233 -259 265 -116 62 -211 88 -340 93
-136 6 -221 -10 -313 -59 -203 -109 -252 -303 -126 -498 99 -155 270 -280 627
-460 290 -146 371 -198 487 -314 98 -99 145 -176 185 -301 31 -98 39 -312 15
-405 -44 -169 -155 -304 -317 -383 -159 -78 -180 -80 -690 -85 -247 -2 -448
-2 -448 0 0 1 -22 158 -49 348 -27 190 -48 346 -46 348 1 2 100 -108 219 -243
200 -226 222 -248 284 -279 118 -59 193 -78 338 -83 102 -4 149 -2 208 11 162
37 299 133 358 254 30 61 33 75 33 162 0 89 -2 99 -35 160 -79 150 -278 306
-610 480 -220 116 -342 196 -451 298 -178 167 -271 351 -286 564 -15 224 86
408 277 501 133 65 138 66 625 66 l440 1 38 -331z m878 314 c-5 -10 -55 -63
-110 -118 l-101 -100 0 -615 1 -615 28 75 c132 351 365 695 698 1028 l153 153
-50 99 c-28 55 -50 102 -50 105 0 3 141 5 313 5 l312 0 -218 -125 c-120 -68
-233 -136 -250 -150 -71 -58 -304 -296 -373 -381 l-74 -91 379 -802 378 -802
114 -117 114 -117 -334 -3 c-184 -1 -336 0 -339 3 -3 3 27 53 66 112 l72 106
-291 616 c-342 723 -341 721 -350 721 -13 0 -169 -320 -202 -415 -76 -219 -97
-370 -97 -686 l0 -211 116 -121 116 -122 -187 -3 c-102 -1 -268 -1 -368 0
l-182 3 118 121 117 120 0 1054 0 1055 -117 117 -118 118 363 0 c342 0 362 -1
353 -17z"/>
</g>
</svg>
